<svg width="600" height="400" viewBox="0 0 600 400" xmlns="http://www.w3.org/2000/svg" role="img" aria-labelledby="title desc">
  <title id="title">Team collaboration illustration</title>
  <desc id="desc">Abstract illustration showing a collaborative engineering team reviewing plans and logistics.</desc>
  <defs>
    <linearGradient id="bg" x1="0" y1="0" x2="0" y2="1">
      <stop offset="0%" stop-color="#ffffff" />
      <stop offset="100%" stop-color="#edf1f5" />
    </linearGradient>
  </defs>
  <rect width="600" height="400" fill="url(#bg)" />
  <g fill="#1f63a3" opacity="0.12">
    <circle cx="120" cy="90" r="24" />
    <circle cx="200" cy="70" r="18" />
    <circle cx="480" cy="80" r="26" />
    <circle cx="540" cy="110" r="18" />
  </g>
  <g fill="#1f63a3" opacity="0.85">
    <rect x="90" y="150" width="130" height="150" rx="20" />
    <rect x="240" y="120" width="150" height="180" rx="20" />
    <rect x="410" y="160" width="110" height="140" rx="20" />
  </g>
  <g fill="#ffffff">
    <rect x="115" y="182" width="80" height="60" rx="14" />
    <rect x="265" y="160" width="100" height="70" rx="14" />
    <rect x="435" y="190" width="60" height="60" rx="14" />
  </g>
  <g fill="#667085">
    <rect x="120" y="260" width="70" height="12" rx="6" />
    <rect x="270" y="245" width="90" height="12" rx="6" />
    <rect x="440" y="255" width="50" height="12" rx="6" />
  </g>
  <g fill="#1f63a3" opacity="0.35">
    <path d="M100 320h110l-24 32H118z" />
    <path d="M255 310h130l-28 40H278z" />
    <path d="M420 315h100l-20 34H436z" />
  </g>
  <g fill="#1f63a3" opacity="0.18">
    <rect x="110" y="130" width="70" height="18" rx="9" />
    <rect x="285" y="110" width="90" height="18" rx="9" />
    <rect x="450" y="140" width="60" height="18" rx="9" />
  </g>
  <g fill="#2563eb" opacity="0.5">
    <rect x="285" y="178" width="32" height="32" rx="10" />
    <rect x="325" y="178" width="32" height="32" rx="10" />
  </g>
  <g fill="#1f63a3" opacity="0.5">
    <rect x="135" y="200" width="40" height="10" rx="5" />
    <rect x="455" y="210" width="30" height="10" rx="5" />
  </g>
</svg>
