<svg width="600" height="400" viewBox="0 0 600 400" xmlns="http://www.w3.org/2000/svg" role="img" aria-labelledby="title desc">
  <title id="title">Factory floor overview illustration</title>
  <desc id="desc">Abstract illustration of an automated factory floor with injection molding machines and pallets.</desc>
  <defs>
    <linearGradient id="bg" x1="0" y1="0" x2="0" y2="1">
      <stop offset="0%" stop-color="#ffffff" />
      <stop offset="100%" stop-color="#f4f6f8" />
    </linearGradient>
  </defs>
  <rect width="600" height="400" fill="url(#bg)" />
  <rect x="40" y="260" width="520" height="12" rx="6" fill="#d8dee6" />
  <g fill="#1f63a3">
    <rect x="80" y="140" width="120" height="110" rx="14" opacity="0.9" />
    <rect x="250" y="120" width="120" height="130" rx="14" opacity="0.8" />
    <rect x="420" y="150" width="120" height="100" rx="14" opacity="0.85" />
  </g>
  <g fill="#ffffff">
    <rect x="105" y="165" width="70" height="60" rx="8" />
    <rect x="275" y="150" width="70" height="60" rx="8" />
    <rect x="445" y="175" width="70" height="60" rx="8" />
  </g>
  <g fill="#667085">
    <rect x="110" y="235" width="60" height="10" rx="5" />
    <rect x="280" y="220" width="60" height="10" rx="5" />
    <rect x="450" y="240" width="60" height="10" rx="5" />
  </g>
  <g fill="#1f63a3" opacity="0.35">
    <circle cx="155" cy="285" r="22" />
    <circle cx="325" cy="285" r="22" />
    <circle cx="495" cy="285" r="22" />
  </g>
  <g fill="#1f63a3" opacity="0.18">
    <rect x="70" y="95" width="70" height="18" rx="9" />
    <rect x="160" y="80" width="90" height="18" rx="9" />
    <rect x="330" y="70" width="110" height="18" rx="9" />
    <rect x="470" y="90" width="70" height="18" rx="9" />
  </g>
  <g fill="#1f63a3" opacity="0.5">
    <rect x="95" y="205" width="90" height="6" rx="3" />
    <rect x="265" y="185" width="90" height="6" rx="3" />
    <rect x="435" y="210" width="90" height="6" rx="3" />
  </g>
  <g fill="#1f63a3" opacity="0.18">
    <rect x="170" y="250" width="44" height="22" rx="6" />
    <rect x="340" y="240" width="44" height="22" rx="6" />
    <rect x="510" y="255" width="44" height="22" rx="6" />
  </g>
</svg>
