<svg xmlns="http://www.w3.org/2000/svg" viewBox="0 0 720 480" role="img" aria-labelledby="title desc">
  <title id="title">Factory overview illustration</title>
  <desc id="desc">Stylised illustration showing factory buildings and storage pallets.</desc>
  <defs>
    <linearGradient id="sky" x1="0" x2="0" y1="0" y2="1">
      <stop offset="0%" stop-color="#e8f1f8" />
      <stop offset="100%" stop-color="#f7fbff" />
    </linearGradient>
  </defs>
  <rect width="720" height="480" fill="url(#sky)" />
  <rect x="60" y="220" width="200" height="160" rx="12" fill="#d7e3f4" />
  <rect x="280" y="200" width="180" height="180" rx="12" fill="#b9d2f0" />
  <rect x="480" y="220" width="180" height="160" rx="12" fill="#8fb7e5" />
  <rect x="100" y="260" width="120" height="40" fill="#6f8fbf" opacity="0.7" />
  <rect x="320" y="240" width="120" height="40" fill="#4a75b3" opacity="0.7" />
  <rect x="520" y="260" width="120" height="40" fill="#3f6aa9" opacity="0.7" />
  <rect x="120" y="320" width="100" height="36" fill="#4a75b3" opacity="0.9" />
  <rect x="340" y="300" width="100" height="36" fill="#3b5d94" opacity="0.9" />
  <rect x="540" y="320" width="100" height="36" fill="#2f4f80" opacity="0.9" />
  <rect x="160" y="356" width="60" height="24" fill="#27446d" opacity="0.9" />
  <rect x="380" y="336" width="60" height="24" fill="#243f65" opacity="0.9" />
  <rect x="580" y="356" width="60" height="24" fill="#1f385b" opacity="0.9" />
  <path d="M60 220 L160 140 L260 220 Z" fill="#b9d2f0" />
  <path d="M280 200 L370 120 L460 200 Z" fill="#8fb7e5" />
  <path d="M480 220 L570 140 L660 220 Z" fill="#6f8fbf" />
  <circle cx="120" cy="120" r="32" fill="#8fb7e5" opacity="0.35" />
  <circle cx="200" cy="100" r="18" fill="#8fb7e5" opacity="0.2" />
  <circle cx="540" cy="110" r="28" fill="#8fb7e5" opacity="0.25" />
  <circle cx="620" cy="90" r="16" fill="#8fb7e5" opacity="0.2" />
  <rect x="310" y="360" width="60" height="20" fill="#1f385b" opacity="0.9" />
  <rect x="530" y="360" width="60" height="20" fill="#1f385b" opacity="0.9" />
  <rect x="90" y="360" width="60" height="20" fill="#1f385b" opacity="0.9" />
  <rect x="280" y="170" width="180" height="20" fill="#6f8fbf" />
  <rect x="480" y="190" width="180" height="20" fill="#4a75b3" />
  <rect x="60" y="190" width="200" height="20" fill="#8fb7e5" />
</svg>
