<svg xmlns="http://www.w3.org/2000/svg" viewBox="0 0 960 640" role="img" aria-labelledby="title desc">
  <title id="title">Factory exterior illustration</title>
  <desc id="desc">Stylized illustration of a modern factory with multiple buildings and trees</desc>
  <defs>
    <linearGradient id="bg" x1="0" y1="0" x2="0" y2="1">
      <stop offset="0%" stop-color="#e3edf7"/>
      <stop offset="100%" stop-color="#f7fbff"/>
    </linearGradient>
    <linearGradient id="glass" x1="0" y1="0" x2="1" y2="1">
      <stop offset="0%" stop-color="#d2e6ff"/>
      <stop offset="100%" stop-color="#9dc5f8"/>
    </linearGradient>
    <linearGradient id="accent" x1="0" y1="0" x2="1" y2="1">
      <stop offset="0%" stop-color="#5aa3f1"/>
      <stop offset="100%" stop-color="#2d73c8"/>
    </linearGradient>
  </defs>
  <rect width="960" height="640" fill="url(#bg)"/>
  <g opacity="0.35">
    <circle cx="160" cy="140" r="90" fill="#fff"/>
    <circle cx="360" cy="120" r="50" fill="#fff"/>
    <circle cx="780" cy="150" r="110" fill="#fff"/>
  </g>
  <g transform="translate(120 240)">
    <rect x="0" y="120" width="720" height="220" fill="#dae4f0"/>
    <rect x="60" y="0" width="520" height="240" fill="#eef3fa"/>
    <rect x="60" y="200" width="540" height="140" fill="#cfdced"/>
    <rect x="620" y="160" width="80" height="160" fill="#c2d8ef"/>
    <rect x="680" y="110" width="60" height="210" fill="#b5cde4"/>
    <rect x="120" y="40" width="140" height="160" fill="#dbe8f8"/>
    <rect x="280" y="40" width="140" height="160" fill="#dbe8f8"/>
    <rect x="440" y="40" width="120" height="160" fill="#dbe8f8"/>
    <rect x="120" y="60" width="140" height="120" fill="url(#glass)"/>
    <rect x="280" y="60" width="140" height="120" fill="url(#glass)"/>
    <rect x="440" y="60" width="120" height="120" fill="url(#glass)"/>
    <rect x="60" y="200" width="540" height="20" fill="#abc6e3"/>
    <rect x="180" y="220" width="20" height="120" fill="#92aed0"/>
    <rect x="340" y="220" width="20" height="120" fill="#92aed0"/>
    <rect x="500" y="220" width="20" height="120" fill="#92aed0"/>
    <rect x="620" y="260" width="60" height="20" fill="#92aed0"/>
    <rect x="80" y="240" width="80" height="100" fill="#5f7ea4" opacity="0.7"/>
    <rect x="240" y="240" width="80" height="100" fill="#5f7ea4" opacity="0.7"/>
    <rect x="400" y="240" width="80" height="100" fill="#5f7ea4" opacity="0.7"/>
    <rect x="560" y="240" width="80" height="100" fill="#5f7ea4" opacity="0.7"/>
    <rect x="700" y="290" width="20" height="50" fill="#546f90"/>
    <polygon points="60,0 580,0 580,-40 180,-40 180,-80 120,-80 120,-40 60,-40" fill="#3b5c8a"/>
    <rect x="100" y="-120" width="60" height="40" fill="#2d73c8"/>
    <rect x="480" y="-120" width="60" height="40" fill="#2d73c8"/>
    <rect x="520" y="-80" width="40" height="40" fill="#3b5c8a"/>
    <rect x="140" y="-80" width="40" height="40" fill="#3b5c8a"/>
    <rect x="560" y="-40" width="80" height="40" fill="#5aa3f1"/>
    <circle cx="50" cy="330" r="38" fill="#8cb36b"/>
    <circle cx="150" cy="340" r="48" fill="#7da95a"/>
    <circle cx="620" cy="340" r="44" fill="#7da95a"/>
    <circle cx="700" cy="350" r="36" fill="#8cb36b"/>
    <rect x="-120" y="300" width="960" height="80" fill="#cdd8e5"/>
    <rect x="-120" y="340" width="960" height="40" fill="#b7c2d2"/>
  </g>
  <rect x="120" y="560" width="720" height="24" fill="url(#accent)" rx="12"/>
</svg>
