<svg xmlns="http://www.w3.org/2000/svg" viewBox="0 0 640 360" role="img" aria-labelledby="title desc">
  <title>Factory floor with molding machines</title>
  <desc>Abstract illustration of an industrial workshop with molding machines and pallets.</desc>
  <defs>
    <linearGradient id="g1" x1="0%" y1="0%" x2="100%" y2="100%">
      <stop offset="0%" stop-color="#0f766e"/>
      <stop offset="100%" stop-color="#14b8a6"/>
    </linearGradient>
    <linearGradient id="g2" x1="0%" y1="0%" x2="0%" y2="100%">
      <stop offset="0%" stop-color="#fef08a"/>
      <stop offset="100%" stop-color="#eab308"/>
    </linearGradient>
  </defs>
  <rect width="640" height="360" fill="#0f172a" rx="24"/>
  <rect x="24" y="32" width="592" height="296" rx="18" fill="#0b3042" stroke="#134e4a" stroke-width="4"/>
  <rect x="52" y="68" width="180" height="112" rx="14" fill="#ecfeff" stroke="#0ea5e9" stroke-width="6"/>
  <rect x="92" y="104" width="64" height="32" rx="8" fill="#0ea5e9" opacity="0.85"/>
  <rect x="238" y="90" width="156" height="140" rx="14" fill="#0f766e" opacity="0.8"/>
  <rect x="230" y="82" width="172" height="156" rx="18" fill="none" stroke="#34d399" stroke-width="6" stroke-dasharray="14 10"/>
  <rect x="420" y="112" width="168" height="96" rx="16" fill="#dbeafe" stroke="#2563eb" stroke-width="6"/>
  <rect x="454" y="142" width="52" height="36" rx="8" fill="#2563eb" opacity="0.9"/>
  <rect x="118" y="204" width="96" height="48" rx="10" fill="#bae6fd" stroke="#0ea5e9" stroke-width="4"/>
  <rect x="270" y="236" width="110" height="40" rx="10" fill="#a7f3d0" stroke="#0f766e" stroke-width="4"/>
  <rect x="454" y="232" width="108" height="44" rx="10" fill="#c7d2fe" stroke="#6366f1" stroke-width="4"/>
  <path d="M78 260h484" stroke="#1f2937" stroke-width="10" stroke-linecap="round" opacity="0.6"/>
  <path d="M110 264h172" stroke="#14b8a6" stroke-width="12" stroke-linecap="round" opacity="0.8"/>
  <path d="M320 264h128" stroke="#22d3ee" stroke-width="12" stroke-linecap="round" opacity="0.8"/>
  <path d="M474 264h90" stroke="#a855f7" stroke-width="12" stroke-linecap="round" opacity="0.8"/>
  <circle cx="116" cy="86" r="12" fill="#22d3ee"/>
  <circle cx="244" cy="80" r="10" fill="#34d399"/>
  <circle cx="448" cy="102" r="10" fill="#22d3ee"/>
  <path d="M108 72l32-22 28 22" fill="none" stroke="#06b6d4" stroke-width="4" stroke-linecap="round" stroke-linejoin="round"/>
  <path d="M274 82l44-30 40 30" fill="none" stroke="#34d399" stroke-width="5" stroke-linecap="round" stroke-linejoin="round"/>
  <path d="M454 92l42-30 40 30" fill="none" stroke="#60a5fa" stroke-width="4" stroke-linecap="round" stroke-linejoin="round"/>
  <rect x="70" y="292" width="500" height="12" fill="url(#g1)" opacity="0.7" rx="6"/>
  <rect x="70" y="308" width="360" height="8" fill="url(#g2)" opacity="0.9" rx="4"/>
</svg>
