<svg xmlns="http://www.w3.org/2000/svg" viewBox="0 0 960 640" role="img" aria-labelledby="title desc">
  <title id="title">Quality control laboratory illustration</title>
  <desc id="desc">Stylized lab scene with engineers inspecting pallets using measuring tools</desc>
  <defs>
    <linearGradient id="lab-bg" x1="0" y1="0" x2="0" y2="1">
      <stop offset="0%" stop-color="#f4f7fb"/>
      <stop offset="100%" stop-color="#e8f0fb"/>
    </linearGradient>
    <linearGradient id="screen" x1="0" y1="0" x2="1" y2="1">
      <stop offset="0%" stop-color="#a9d5ff"/>
      <stop offset="100%" stop-color="#6c9fed"/>
    </linearGradient>
    <linearGradient id="coats" x1="0" y1="0" x2="0" y2="1">
      <stop offset="0%" stop-color="#f6f9ff"/>
      <stop offset="100%" stop-color="#dfe8f7"/>
    </linearGradient>
  </defs>
  <rect width="960" height="640" fill="url(#lab-bg)"/>
  <g opacity="0.2" transform="translate(160 60)">
    <circle cx="0" cy="0" r="120" fill="#fff"/>
    <circle cx="560" cy="80" r="160" fill="#fff"/>
    <circle cx="360" cy="-40" r="80" fill="#fff"/>
  </g>
  <g transform="translate(120 120)">
    <rect x="0" y="380" width="720" height="120" fill="#c9d6ea"/>
    <rect x="40" y="80" width="640" height="320" fill="#edf2fc"/>
    <rect x="80" y="120" width="200" height="200" fill="#d7e3f6"/>
    <rect x="320" y="120" width="280" height="200" fill="#d7e3f6"/>
    <rect x="140" y="160" width="80" height="120" fill="#9fb9d8"/>
    <rect x="360" y="160" width="220" height="120" fill="#9fb9d8"/>
    <rect x="360" y="280" width="220" height="20" fill="#8aa7ca"/>
    <rect x="80" y="320" width="520" height="40" fill="#b9cbe2"/>
    <rect x="240" y="360" width="200" height="20" fill="#a3bad6"/>
    <rect x="440" y="360" width="160" height="20" fill="#8aa7ca"/>
    <rect x="100" y="220" width="120" height="12" fill="#f7f9fc" rx="6"/>
    <rect x="100" y="240" width="120" height="12" fill="#f7f9fc" rx="6"/>
    <rect x="380" y="180" width="180" height="60" fill="url(#screen)" rx="12"/>
    <rect x="360" y="120" width="220" height="20" fill="#aabdd8"/>
    <rect x="80" y="120" width="220" height="20" fill="#aabdd8"/>
    <g transform="translate(520 60)">
      <rect x="-20" y="0" width="100" height="120" fill="#fbe9a1" rx="16"/>
      <rect x="0" y="20" width="60" height="80" fill="#f8cf5a" rx="12"/>
      <rect x="20" y="40" width="20" height="40" fill="#f4b434" rx="6"/>
    </g>
    <g transform="translate(200 280)">
      <rect x="0" y="0" width="200" height="60" fill="#708bb0" rx="12"/>
      <rect x="20" y="10" width="160" height="12" fill="#9fb9d8" rx="6"/>
      <rect x="20" y="32" width="120" height="12" fill="#9fb9d8" rx="6"/>
    </g>
  </g>
  <g transform="translate(220 280)">
    <rect x="0" y="0" width="120" height="240" fill="url(#coats)" rx="40"/>
    <rect x="22" y="12" width="76" height="120" fill="#e4edfb" rx="24"/>
    <circle cx="60" cy="110" r="18" fill="#6c9fed"/>
    <rect x="40" y="140" width="40" height="80" fill="#6d88ac"/>
    <rect x="20" y="200" width="80" height="80" fill="#445d7c" rx="20"/>
    <rect x="-10" y="260" width="140" height="40" fill="#2f4b6d" rx="20"/>
  </g>
  <g transform="translate(540 300)">
    <rect x="0" y="0" width="140" height="240" fill="url(#coats)" rx="48"/>
    <rect x="24" y="16" width="92" height="120" fill="#e0e9f8" rx="28"/>
    <circle cx="70" cy="110" r="18" fill="#5a7fa6"/>
    <rect x="52" y="140" width="36" height="80" fill="#607ca2"/>
    <rect x="30" y="200" width="80" height="80" fill="#324c6b" rx="20"/>
    <rect x="6" y="260" width="128" height="40" fill="#223a54" rx="18"/>
    <rect x="30" y="40" width="80" height="12" fill="#6c9fed" rx="6"/>
  </g>
  <g transform="translate(420 340)">
    <rect x="0" y="0" width="80" height="120" fill="#9fb9d8" rx="20"/>
    <rect x="12" y="12" width="56" height="56" fill="#6c9fed" rx="16"/>
    <rect x="20" y="76" width="40" height="24" fill="#4b6b90" rx="8"/>
  </g>
</svg>
