<svg xmlns="http://www.w3.org/2000/svg" viewBox="0 0 960 640" role="img" aria-labelledby="title desc">
  <title id="title">Team collaboration illustration</title>
  <desc id="desc">Stylized team collaborating around a table with charts and product plans</desc>
  <defs>
    <linearGradient id="team-bg" x1="0" y1="0" x2="1" y2="1">
      <stop offset="0%" stop-color="#f0f6ff"/>
      <stop offset="100%" stop-color="#dfe9f9"/>
    </linearGradient>
    <linearGradient id="chart" x1="0" y1="0" x2="1" y2="1">
      <stop offset="0%" stop-color="#8ec5ff"/>
      <stop offset="100%" stop-color="#4f91e5"/>
    </linearGradient>
  </defs>
  <rect width="960" height="640" fill="url(#team-bg)"/>
  <g opacity="0.28">
    <circle cx="220" cy="120" r="100" fill="#fff"/>
    <circle cx="520" cy="80" r="80" fill="#fff"/>
    <circle cx="760" cy="160" r="120" fill="#fff"/>
  </g>
  <g transform="translate(160 140)">
    <rect x="0" y="340" width="640" height="120" fill="#c2d6eb"/>
    <rect x="60" y="0" width="520" height="300" fill="#f8fafd" rx="24"/>
    <rect x="100" y="40" width="440" height="200" fill="#e1ebf6" rx="18"/>
    <rect x="130" y="70" width="180" height="140" fill="#fff" rx="16"/>
    <rect x="330" y="70" width="180" height="60" fill="#fff" rx="16"/>
    <rect x="330" y="150" width="180" height="60" fill="#fff" rx="16"/>
    <rect x="140" y="96" width="140" height="16" fill="#aabfdc" rx="8"/>
    <rect x="140" y="124" width="100" height="16" fill="#d1dff1" rx="8"/>
    <rect x="340" y="92" width="160" height="20" fill="#d1dff1" rx="10"/>
    <rect x="340" y="168" width="120" height="20" fill="#aabfdc" rx="10"/>
    <g transform="translate(360 120)">
      <rect x="0" y="0" width="80" height="60" fill="url(#chart)" rx="12"/>
      <rect x="16" y="16" width="12" height="28" fill="#fff" rx="6"/>
      <rect x="36" y="8" width="12" height="36" fill="#fff" rx="6"/>
      <rect x="56" y="22" width="12" height="22" fill="#fff" rx="6"/>
    </g>
    <rect x="180" y="260" width="260" height="80" fill="#9fb6d4" rx="24"/>
    <rect x="200" y="272" width="220" height="20" fill="#f2f6fc" rx="10"/>
    <rect x="220" y="304" width="120" height="16" fill="#d6e1f0" rx="8"/>
  </g>
  <g transform="translate(240 280)">
    <rect x="0" y="0" width="120" height="220" fill="#fefefe" rx="40"/>
    <rect x="16" y="20" width="88" height="120" fill="#f0f6ff" rx="24"/>
    <circle cx="60" cy="90" r="22" fill="#4f91e5"/>
    <rect x="44" y="128" width="32" height="64" fill="#6a8db8"/>
    <rect x="20" y="172" width="80" height="80" fill="#3a5f8a" rx="26"/>
    <rect x="-10" y="232" width="140" height="40" fill="#203d5d" rx="20"/>
  </g>
  <g transform="translate(420 300)">
    <rect x="0" y="0" width="120" height="240" fill="#fefefe" rx="44"/>
    <rect x="16" y="24" width="88" height="128" fill="#e6eef9" rx="28"/>
    <circle cx="60" cy="100" r="22" fill="#ff9f60"/>
    <rect x="44" y="138" width="32" height="64" fill="#8aa4c8"/>
    <rect x="20" y="188" width="80" height="80" fill="#4c6f98" rx="24"/>
    <rect x="-8" y="248" width="136" height="40" fill="#223f5f" rx="20"/>
  </g>
  <g transform="translate(580 260)">
    <rect x="0" y="0" width="140" height="260" fill="#fefefe" rx="48"/>
    <rect x="24" y="28" width="92" height="140" fill="#f0f6ff" rx="30"/>
    <circle cx="70" cy="110" r="26" fill="#3cbfa6"/>
    <rect x="52" y="150" width="36" height="72" fill="#6b8ab2"/>
    <rect x="30" y="210" width="80" height="80" fill="#365478" rx="26"/>
    <rect x="-2" y="270" width="144" height="40" fill="#1f364f" rx="20"/>
    <rect x="40" y="44" width="60" height="12" fill="#4f91e5" rx="6"/>
  </g>
</svg>
